<svg version="1.1" viewBox="0.0 0.0 32.0 32.0" fill="none" stroke="none" stroke-linecap="square" stroke-miterlimit="10" xmlns:xlink="http://www.w3.org/1999/xlink" xmlns="http://www.w3.org/2000/svg"><clipPath id="p.0"><path d="m0 0l32.0 0l0 32.0l-32.0 0l0 -32.0z" clip-rule="nonzero"/></clipPath><g clip-path="url(#p.0)"><path fill="#000000" fill-opacity="0.0" d="m0 0l32.0 0l0 32.0l-32.0 0z" fill-rule="evenodd"/><path fill="#000000" fill-opacity="0.0" d="m3.496063 16.0l0 0c0 -6.9840107 5.5982027 -12.645669 12.503937 -12.645669l0 0c3.3162498 0 6.4966755 1.3323076 8.8416195 3.7038305c2.344942 2.3715234 3.6623173 5.587999 3.6623173 8.941839l0 0c0 6.9840107 -5.5982037 12.64567 -12.503937 12.64567l0 0c-6.905734 0 -12.503937 -5.6616592 -12.503937 -12.64567z" fill-rule="evenodd"/><path stroke="#ffffff" stroke-width="1.0" stroke-linejoin="round" stroke-linecap="butt" d="m3.496063 16.0l0 0c0 -6.9840107 5.5982027 -12.645669 12.503937 -12.645669l0 0c3.3162498 0 6.4966755 1.3323076 8.8416195 3.7038305c2.344942 2.3715234 3.6623173 5.587999 3.6623173 8.941839l0 0c0 6.9840107 -5.5982037 12.64567 -12.503937 12.64567l0 0c-6.905734 0 -12.503937 -5.6616592 -12.503937 -12.64567z" fill-rule="evenodd"/><path fill="#00313b" d="m14.204724 2.312336l3.5905504 0l0 0.4409449l-3.5905504 0z" fill-rule="evenodd"/><path stroke="#ffffff" stroke-width="2.0" stroke-linejoin="round" stroke-linecap="butt" d="m14.204724 2.312336l3.5905504 0l0 0.4409449l-3.5905504 0z" fill-rule="evenodd"/><path fill="#ffffff" d="m14.332245 14.329662l8.503937 -5.165354l-5.165354 8.503937l-8.503938 5.165354z" fill-rule="evenodd"/><path stroke="#ffffff" stroke-width="1.0" stroke-linejoin="round" stroke-linecap="butt" d="m14.332245 14.329662l8.503937 -5.165354l-5.165354 8.503937l-8.503938 5.165354z" fill-rule="evenodd"/></g></svg>